<svg width="169" height="36" viewBox="0 0 169 36" fill="none" xmlns="http://www.w3.org/2000/svg">
<path d="M32.9633 25.4744C32.8024 25.0226 32.6142 24.5854 32.4353 24.1804C32.1598 23.5574 31.8713 22.9331 31.5922 22.3298L31.5701 22.2819C29.0812 16.8919 26.4097 11.4282 23.63 6.04272L23.512 5.81406C23.2285 5.26411 22.9354 4.69548 22.6345 4.13675C22.2778 3.42966 21.8449 2.76347 21.3436 2.14998C20.7793 1.47676 20.0739 0.935315 19.2771 0.563837C18.4803 0.192359 17.6116 -0.000110373 16.7321 4.74843e-08C15.8527 0.000110468 14.9841 0.192798 14.1873 0.564477C13.3906 0.936155 12.6853 1.47778 12.1212 2.15113C11.6205 2.76477 11.1878 3.43082 10.831 4.13756C10.5276 4.7013 10.2317 5.2752 9.94562 5.83022L9.83605 6.04266C7.0563 11.4285 4.38484 16.8922 1.89588 22.2817L1.85961 22.3601C1.58537 22.9538 1.30183 23.5676 1.03094 24.1801C0.851935 24.5849 0.664069 25.0217 0.502929 25.4746C0.0413986 26.7086 -0.105671 28.0377 0.0749419 29.3425C0.266478 30.6611 0.799795 31.907 1.62207 32.9566C2.44435 34.0062 3.52707 34.8231 4.76298 35.3266C5.69649 35.7043 6.69463 35.8973 7.70191 35.8951C8.01833 35.8949 8.33447 35.8765 8.64877 35.84C9.92274 35.6777 11.1514 35.2631 12.2628 34.6207C13.7205 33.8017 15.1603 32.6015 16.733 30.8863C18.3058 32.6015 19.7455 33.8017 21.2033 34.6207C22.3146 35.2632 23.5433 35.6777 24.8173 35.84C25.1316 35.8765 25.4478 35.8949 25.7642 35.8951C26.7714 35.8973 27.7694 35.7043 28.7029 35.3266C29.9388 34.8231 31.0216 34.0062 31.844 32.9566C32.6663 31.907 33.1997 30.6612 33.3913 29.3425C33.5716 28.0376 33.4246 26.7085 32.9633 25.4744ZM16.733 27.3442C14.7861 24.8763 13.5367 22.5845 13.0983 20.6632C12.9187 19.9433 12.8763 19.1961 12.9734 18.4605C13.05 17.9213 13.2481 17.4064 13.5527 16.9546C13.9276 16.4684 14.4094 16.0747 14.9608 15.8038C15.5123 15.533 16.1187 15.3921 16.7333 15.3921C17.348 15.3922 17.9543 15.5331 18.5057 15.8041C19.0571 16.075 19.5388 16.4688 19.9137 16.9549C20.2183 17.407 20.4164 17.9218 20.493 18.4612C20.5898 19.1971 20.5473 19.9445 20.3674 20.6647C19.9286 22.5857 18.6796 24.8768 16.733 27.3442ZM31.1172 29.0177C30.9833 29.9396 30.6103 30.8107 30.0354 31.5446C29.4604 32.2785 28.7034 32.8498 27.8392 33.2018C26.9654 33.5519 26.0171 33.676 25.0825 33.5624C24.1109 33.4373 23.1746 33.1176 22.33 32.6223C21.0324 31.8933 19.7188 30.7742 18.2407 29.1324C20.5938 26.231 22.0631 23.5567 22.6071 21.1747C22.852 20.173 22.9051 19.1342 22.7636 18.113C22.6353 17.2332 22.3087 16.3939 21.8084 15.6584C21.2223 14.8649 20.4577 14.2198 19.5763 13.7753C18.6947 13.3308 17.7209 13.0991 16.7333 13.0991C15.7457 13.0991 14.7718 13.3306 13.8903 13.7751C13.0087 14.2195 12.2441 14.8645 11.658 15.658C11.1578 16.3933 10.8312 17.2323 10.7028 18.1119C10.5613 19.1327 10.6141 20.171 10.8584 21.1724C11.4021 23.5553 12.8715 26.2303 15.2253 29.1326C13.7472 30.7742 12.4337 31.8933 11.1361 32.6224C10.2914 33.1176 9.35523 33.4374 8.38368 33.5624C7.44895 33.676 6.50065 33.5519 5.62677 33.2018C4.76261 32.8498 4.00557 32.2785 3.43065 31.5447C2.85573 30.8107 2.48287 29.9396 2.34901 29.0177C2.22024 28.0805 2.32982 27.126 2.66765 26.2422C2.79607 25.8812 2.94634 25.527 3.13252 25.1061C3.3959 24.5107 3.6754 23.9055 3.94575 23.3203L3.98206 23.2417C6.4571 17.8824 9.11376 12.4491 11.8783 7.09257L11.9884 6.87932C12.2698 6.33325 12.5609 5.76864 12.8546 5.22307C13.1355 4.66076 13.4755 4.12985 13.8688 3.63931C14.2174 3.21825 14.6548 2.87924 15.1498 2.64652C15.645 2.41379 16.1854 2.29309 16.7326 2.29304C17.2798 2.293 17.8203 2.41362 18.3153 2.64626C18.8105 2.87891 19.2479 3.21785 19.5966 3.63885C19.9902 4.12902 20.3303 4.65975 20.6109 5.22203C20.9019 5.76275 21.1904 6.32227 21.4695 6.86334L21.5877 7.09281C24.3522 12.4487 27.0088 17.8819 29.4841 23.2422L29.5064 23.2904C29.7814 23.8855 30.0658 24.5005 30.3336 25.1063C30.52 25.5278 30.6705 25.8824 30.7986 26.242C31.1363 27.1259 31.2459 28.0804 31.1172 29.0177Z" fill="#312A4F"/>
<path d="M47.2048 17.1513V23.1637C47.2048 23.5825 47.302 23.8891 47.4964 24.0835C47.7058 24.263 48.0498 24.3527 48.5284 24.3527H49.9866V27H48.0124C45.3652 27 44.0415 25.7138 44.0415 23.1413V17.1513H42.5609V14.5713H44.0415V11.4978H47.2048V14.5713H49.9866V17.1513H47.2048Z" fill="#312A4F"/>
<path d="M55.3865 16.5007C55.7903 15.8426 56.3138 15.3266 56.9569 14.9527C57.615 14.5788 58.3628 14.3919 59.2004 14.3919V17.6897H58.3703C57.3832 17.6897 56.6354 17.9215 56.1268 18.3852C55.6333 18.8488 55.3865 19.6565 55.3865 20.8081V27H52.2457V14.5713H55.3865V16.5007Z" fill="#312A4F"/>
<path d="M60.5082 20.7408C60.5082 19.4845 60.755 18.3702 61.2485 17.3981C61.7571 16.4259 62.4376 15.6781 63.2901 15.1546C64.1575 14.6312 65.1222 14.3694 66.1841 14.3694C67.1114 14.3694 67.919 14.5564 68.607 14.9303C69.31 15.3042 69.8708 15.7753 70.2896 16.3437V14.5713H73.4529V27H70.2896V25.1828C69.8858 25.7661 69.3249 26.2522 68.607 26.6411C67.9041 27.015 67.089 27.2019 66.1617 27.2019C65.1147 27.2019 64.1575 26.9327 63.2901 26.3943C62.4376 25.8558 61.7571 25.1006 61.2485 24.1284C60.755 23.1413 60.5082 22.0121 60.5082 20.7408ZM70.2896 20.7857C70.2896 20.0229 70.14 19.3723 69.8409 18.8339C69.5418 18.2805 69.138 17.8617 68.6295 17.5775C68.121 17.2784 67.575 17.1289 66.9918 17.1289C66.4085 17.1289 65.87 17.2709 65.3765 17.5551C64.8829 17.8393 64.4791 18.2581 64.165 18.8114C63.8659 19.3499 63.7163 19.993 63.7163 20.7408C63.7163 21.4886 63.8659 22.1467 64.165 22.715C64.4791 23.2684 64.8829 23.6947 65.3765 23.9938C65.885 24.2929 66.4234 24.4425 66.9918 24.4425C67.575 24.4425 68.121 24.3004 68.6295 24.0162C69.138 23.7171 69.5418 23.2983 69.8409 22.7599C70.14 22.2065 70.2896 21.5484 70.2896 20.7857Z" fill="#312A4F"/>
<path d="M81.7028 24.106L84.8436 14.5713H88.1863L83.5873 27H79.7734L75.1968 14.5713H78.562L81.7028 24.106Z" fill="#312A4F"/>
<path d="M101.504 20.5165C101.504 20.9651 101.474 21.369 101.414 21.7279H92.3284C92.4032 22.6253 92.7173 23.3282 93.2707 23.8367C93.8241 24.3453 94.5046 24.5995 95.3122 24.5995C96.4788 24.5995 97.3089 24.0985 97.8024 23.0964H101.19C100.831 24.2929 100.143 25.28 99.1261 26.0578C98.109 26.8205 96.8602 27.2019 95.3795 27.2019C94.183 27.2019 93.1062 26.9402 92.149 26.4167C91.2067 25.8783 90.4664 25.123 89.928 24.1508C89.4045 23.1787 89.1427 22.057 89.1427 20.7857C89.1427 19.4994 89.4045 18.3702 89.928 17.3981C90.4514 16.4259 91.1843 15.6781 92.1265 15.1546C93.0688 14.6312 94.1531 14.3694 95.3795 14.3694C96.5611 14.3694 97.6155 14.6237 98.5428 15.1322C99.485 15.6407 100.21 16.3661 100.719 17.3083C101.242 18.2356 101.504 19.305 101.504 20.5165ZM98.2511 19.6191C98.2362 18.8114 97.9445 18.1683 97.3762 17.6897C96.8078 17.1962 96.1124 16.9494 95.2898 16.9494C94.512 16.9494 93.854 17.1887 93.3155 17.6673C92.7921 18.1309 92.4705 18.7815 92.3509 19.6191H98.2511Z" fill="#312A4F"/>
<path d="M106.937 10.3985V27H103.797V10.3985H106.937Z" fill="#312A4F"/>
<path d="M127.27 14.5713L123.636 27H120.248L117.982 18.3179L115.716 27H112.306L108.65 14.5713H111.835L114.034 24.0387L116.412 14.5713H119.732L122.065 24.0162L124.264 14.5713H127.27Z" fill="#312A4F"/>
<path d="M140.523 20.5165C140.523 20.9651 140.493 21.369 140.434 21.7279H131.348C131.422 22.6253 131.737 23.3282 132.29 23.8367C132.843 24.3453 133.524 24.5995 134.331 24.5995C135.498 24.5995 136.328 24.0985 136.822 23.0964H140.209C139.85 24.2929 139.162 25.28 138.145 26.0578C137.128 26.8205 135.879 27.2019 134.399 27.2019C133.202 27.2019 132.125 26.9402 131.168 26.4167C130.226 25.8783 129.486 25.123 128.947 24.1508C128.424 23.1787 128.162 22.057 128.162 20.7857C128.162 19.4994 128.424 18.3702 128.947 17.3981C129.471 16.4259 130.203 15.6781 131.146 15.1546C132.088 14.6312 133.172 14.3694 134.399 14.3694C135.58 14.3694 136.635 14.6237 137.562 15.1322C138.504 15.6407 139.23 16.3661 139.738 17.3083C140.262 18.2356 140.523 19.305 140.523 20.5165ZM137.27 19.6191C137.255 18.8114 136.964 18.1683 136.395 17.6897C135.827 17.1962 135.132 16.9494 134.309 16.9494C133.531 16.9494 132.873 17.1887 132.335 17.6673C131.811 18.1309 131.49 18.7815 131.37 19.6191H137.27Z" fill="#312A4F"/>
<path d="M154.37 20.5165C154.37 20.9651 154.34 21.369 154.28 21.7279H145.194C145.269 22.6253 145.583 23.3282 146.136 23.8367C146.69 24.3453 147.37 24.5995 148.178 24.5995C149.344 24.5995 150.174 24.0985 150.668 23.0964H154.055C153.697 24.2929 153.009 25.28 151.992 26.0578C150.974 26.8205 149.726 27.2019 148.245 27.2019C147.048 27.2019 145.972 26.9402 145.014 26.4167C144.072 25.8783 143.332 25.123 142.793 24.1508C142.27 23.1787 142.008 22.057 142.008 20.7857C142.008 19.4994 142.27 18.3702 142.793 17.3981C143.317 16.4259 144.05 15.6781 144.992 15.1546C145.934 14.6312 147.019 14.3694 148.245 14.3694C149.427 14.3694 150.481 14.6237 151.408 15.1322C152.35 15.6407 153.076 16.3661 153.584 17.3083C154.108 18.2356 154.37 19.305 154.37 20.5165ZM151.117 19.6191C151.102 18.8114 150.81 18.1683 150.242 17.6897C149.673 17.1962 148.978 16.9494 148.155 16.9494C147.378 16.9494 146.719 17.1887 146.181 17.6673C145.658 18.1309 145.336 18.7815 145.216 19.6191H151.117Z" fill="#312A4F"/>
<path d="M164.021 27L159.803 21.7055V27H156.662V10.3985H159.803V19.8434L163.976 14.5713H168.059L162.585 20.8081L168.104 27H164.021Z" fill="#312A4F"/>
</svg>
